<svg version="1.1" id="a" xmlns="http://www.w3.org/2000/svg" xmlns:xlink="http://www.w3.org/1999/xlink" x="0px" y="0px"
	 viewBox="0 0 414 408" style="enable-background:new 0 0 414 408;" xml:space="preserve">
<defs>
	<style>
		.path {
			fill: rgba( 0, 127, 149,1);
		}
	</style>
</defs>
<path class="path" d="M383,70.6L329,16.6c-7.7-7.7-18.1-12.5-29-12.6c-11.2-0.2-21.8,4.1-29.7,12L29.2,257.1c-6.2,6.2-10.4,14.5-11.6,23.2
	l-9.1,63.8C6.6,357,10.8,369.7,20,379c7.8,7.8,18.1,12,28.9,12c2,0,4-0.1,5.9-0.4l63.7-9.1c8.8-1.3,17-5.4,23.3-11.7L383,128.7
	c7.8-7.8,12-18.1,12-29S390.8,78.4,383,70.6z M112.6,340.4l-62.8,9c-0.1,0-0.2-0.1-0.2-0.2l9-62.7c0,0,0-0.1,0.1-0.1l149.7-149.7
	c0.1-0.1,0.2-0.1,0.3,0l53.7,53.7c0.1,0.1,0.1,0.2,0,0.3L112.6,340.4L112.6,340.4z M291.9,161.2L238,107.3c-0.1-0.1-0.1-0.2,0-0.3
	l61.2-61.2c0.1-0.1,0.2-0.1,0.3,0l53.7,53.7c0.1,0.1,0.1,0.2,0,0.3L291.9,161.2L291.9,161.2z"/>
</svg>
